<svg width="65" height="65" viewBox="0 0 65 65" fill="none" xmlns="http://www.w3.org/2000/svg">
<g id="Icon">
<path id="Vector" d="M40.625 55.8594H42.6562V57.8906H40.625V55.8594ZM40.625 59.9219H42.6562V61.9531H40.625V59.9219ZM32.5 32.5C30.4688 32.5 28.6068 31.8335 26.9141 30.5005C25.2214 29.1675 23.973 27.3796 23.1689 25.1367C23.0843 24.9251 22.9997 24.6712 22.915 24.375C22.8304 24.0788 22.7458 23.7826 22.6611 23.4863V23.3594C22.5765 22.9362 22.5024 22.4601 22.439 21.9312C22.3755 21.4022 22.3438 20.8626 22.3438 20.3125C22.3438 20.2702 22.3438 20.2279 22.3438 20.1855C22.3438 20.1432 22.3438 20.1221 22.3438 20.1221C22.3438 18.3447 22.6611 16.6838 23.2959 15.1392C23.9307 13.5946 24.7982 12.2298 25.8984 11.0449C26.5332 10.4102 27.2314 9.86003 27.9932 9.39453C28.7549 8.92904 29.5801 8.5905 30.4688 8.37891H30.5322C30.8285 8.29427 31.1458 8.23079 31.4844 8.18848C31.8229 8.14616 32.1615 8.125 32.5 8.125C32.8385 8.125 33.1771 8.14616 33.5156 8.18848C33.8542 8.23079 34.1927 8.29427 34.5312 8.37891H34.4678C35.3988 8.5905 36.2451 8.92904 37.0068 9.39453C37.7686 9.86003 38.4668 10.4102 39.1016 11.0449C40.2018 12.2298 41.0693 13.5946 41.7041 15.1392C42.3389 16.6838 42.6562 18.3447 42.6562 20.1221C42.6562 20.1221 42.6562 20.1432 42.6562 20.1855C42.6562 20.2279 42.6562 20.2702 42.6562 20.3125C42.6562 20.8626 42.6245 21.4022 42.561 21.9312C42.4976 22.4601 42.4235 22.9785 42.3389 23.4863V23.3594C42.2542 23.7402 42.1696 24.0788 42.085 24.375C42.0003 24.6712 41.8945 24.9674 41.7676 25.2637L41.8311 25.2002C41.027 27.4007 39.7786 29.1675 38.0859 30.5005C36.3932 31.8335 34.5312 32.5 32.5 32.5ZM32.5 10.1562C32.2461 10.1562 31.9816 10.1668 31.7065 10.188C31.4315 10.2091 31.1882 10.262 30.9766 10.3467C30.2572 10.5159 29.5907 10.7804 28.9771 11.1401C28.3634 11.4998 27.8239 11.9336 27.3584 12.4414C26.4274 13.457 25.6974 14.6208 25.1685 15.9326C24.6395 17.2445 24.375 18.6198 24.375 20.0586C24.375 20.1009 24.375 20.1432 24.375 20.1855C24.375 20.2279 24.375 20.2702 24.375 20.3125C24.375 20.778 24.3962 21.2435 24.4385 21.709C24.4808 22.1745 24.5654 22.6188 24.6924 23.042L24.6289 22.915C24.7135 23.2113 24.7876 23.4969 24.8511 23.772C24.9146 24.047 25.0098 24.2904 25.1367 24.502L25.0732 24.4385C25.7503 26.3005 26.7554 27.771 28.0884 28.8501C29.4214 29.9292 30.8919 30.4688 32.5 30.4688C34.1081 30.4688 35.5786 29.9292 36.9116 28.8501C38.2446 27.771 39.2497 26.3216 39.9268 24.502C40.0114 24.2904 40.0854 24.0576 40.1489 23.8037C40.2124 23.5498 40.2865 23.2747 40.3711 22.9785V22.915C40.4557 22.5342 40.5192 22.1216 40.5615 21.6772C40.6038 21.2329 40.625 20.778 40.625 20.3125C40.625 20.2702 40.625 20.2279 40.625 20.1855C40.625 20.1432 40.625 20.1009 40.625 20.0586C40.625 18.6198 40.3605 17.2445 39.8315 15.9326C39.3026 14.6208 38.5726 13.457 37.6416 12.4414C37.1761 11.9336 36.6366 11.4998 36.0229 11.1401C35.4093 10.7804 34.764 10.5159 34.0869 10.3467H34.0234C33.7695 10.262 33.5156 10.2091 33.2617 10.188C33.0078 10.1668 32.7539 10.1562 32.5 10.1562ZM18.2812 28.4375C15.4883 28.4375 13.0973 27.242 11.1084 24.8511C9.11947 22.4601 8.125 19.5931 8.125 16.25C8.125 12.9069 9.11947 10.0399 11.1084 7.64893C13.0973 5.25798 15.4883 4.0625 18.2812 4.0625C20.3125 4.0625 22.1745 4.729 23.8672 6.06201C25.5599 7.39502 26.8083 9.18294 27.6123 11.4258C27.6123 11.4681 27.6229 11.521 27.644 11.5845C27.6652 11.6479 27.6758 11.7008 27.6758 11.7432C27.6758 11.8701 27.644 11.9971 27.5806 12.124C27.5171 12.251 27.443 12.3568 27.3584 12.4414C26.4274 13.457 25.6974 14.6208 25.1685 15.9326C24.6395 17.2445 24.375 18.6198 24.375 20.0586C24.375 20.1009 24.375 20.1432 24.375 20.1855C24.375 20.2279 24.375 20.2702 24.375 20.3125C24.375 20.778 24.3962 21.2329 24.4385 21.6772C24.4808 22.1216 24.5654 22.5765 24.6924 23.042L24.6289 22.915C24.7135 23.2113 24.7876 23.4969 24.8511 23.772C24.9146 24.047 25.0098 24.3115 25.1367 24.5654L25.0732 24.4385C25.1156 24.5231 25.1367 24.5972 25.1367 24.6606C25.1367 24.7241 25.1367 24.777 25.1367 24.8193C25.1367 24.9463 25.1156 25.0732 25.0732 25.2002C25.0309 25.3271 24.9674 25.4329 24.8828 25.5176C24.0365 26.4062 23.0526 27.1151 21.9312 27.644C20.8097 28.173 19.5931 28.4375 18.2812 28.4375ZM18.3447 6.09375C16.0596 6.09375 14.1235 7.08821 12.5366 9.07715C10.9497 11.0661 10.1562 13.457 10.1562 16.25C10.1562 19.043 10.9497 21.4339 12.5366 23.4229C14.1235 25.4118 16.0384 26.4062 18.2812 26.4062C19.1699 26.4062 20.0163 26.237 20.8203 25.8984C21.6243 25.5599 22.3438 25.0944 22.9785 24.502V24.5654C22.9362 24.3538 22.8833 24.1528 22.8198 23.9624C22.7563 23.772 22.7035 23.571 22.6611 23.3594C22.5765 22.8939 22.5024 22.4072 22.439 21.8994C22.3755 21.3916 22.3438 20.8626 22.3438 20.3125C22.3438 20.2702 22.3438 20.2384 22.3438 20.2173C22.3438 20.1961 22.3438 20.1644 22.3438 20.1221C22.3438 18.4717 22.6188 16.9165 23.1689 15.4565C23.7191 13.9966 24.4808 12.6742 25.4541 11.4893C24.777 9.88118 23.7931 8.57991 22.5024 7.58545C21.2118 6.59098 19.8258 6.09375 18.3447 6.09375ZM26.6602 12.7588C26.6178 12.7588 26.5755 12.7588 26.5332 12.7588C26.4909 12.7588 26.4486 12.7588 26.4062 12.7588C26.237 12.7165 26.0889 12.6318 25.9619 12.5049C25.835 12.3779 25.7503 12.2298 25.708 12.0605C25.0309 10.2832 24.0259 8.8444 22.6929 7.74414C21.3599 6.64388 19.9105 6.09375 18.3447 6.09375C18.0485 6.09375 17.8052 5.99854 17.6147 5.80811C17.4243 5.61768 17.3291 5.37435 17.3291 5.07812C17.3291 4.95117 17.3397 4.84538 17.3608 4.76074C17.382 4.67611 17.4349 4.59147 17.5195 4.50684C18.3659 3.19499 19.4767 2.12646 20.8521 1.30127C22.2274 0.476074 23.7402 0.0423203 25.3906 0C27.0833 0.0423203 28.6279 0.476074 30.0244 1.30127C31.4209 2.12646 32.5212 3.21614 33.3252 4.57031V4.63379C33.4098 4.67611 33.4627 4.75016 33.4839 4.85596C33.505 4.96175 33.5156 5.05696 33.5156 5.1416C33.5156 5.26855 33.505 5.37435 33.4839 5.45898C33.4627 5.54362 33.4098 5.62825 33.3252 5.71289C32.9867 6.26302 32.6798 6.85547 32.4048 7.49023C32.1297 8.125 31.9287 8.78093 31.8018 9.45801L31.7383 9.58496C31.696 9.75423 31.6113 9.91292 31.4844 10.061C31.3574 10.2091 31.1882 10.3044 30.9766 10.3467C30.2572 10.5159 29.5907 10.7804 28.9771 11.1401C28.3634 11.4998 27.8239 11.9336 27.3584 12.4414C27.2738 12.526 27.168 12.6001 27.041 12.6636C26.9141 12.7271 26.7871 12.7588 26.6602 12.7588ZM20.3125 4.31641C21.7936 4.73958 23.116 5.44841 24.2798 6.44287C25.4435 7.43734 26.3428 8.61165 26.9775 9.96582L27.041 10.0293C27.4219 9.73307 27.8556 9.45801 28.3423 9.2041C28.8289 8.9502 29.3262 8.73861 29.834 8.56934L29.8975 8.50586C30.0667 7.87109 30.2677 7.27864 30.5005 6.72852C30.7332 6.17839 30.9977 5.64941 31.2939 5.1416V5.20508C30.6169 4.27409 29.7705 3.52295 28.7549 2.95166C27.7393 2.38037 26.6178 2.07357 25.3906 2.03125C24.375 2.03125 23.4334 2.24284 22.5659 2.66602C21.6984 3.08919 20.9473 3.63932 20.3125 4.31641ZM38.3398 12.7588C38.2129 12.7588 38.0859 12.7271 37.959 12.6636C37.832 12.6001 37.7262 12.526 37.6416 12.4414C37.1761 11.9336 36.6366 11.4998 36.0229 11.1401C35.4093 10.7804 34.764 10.5159 34.0869 10.3467H34.0234C33.7695 10.262 33.5156 10.2091 33.2617 10.188C33.0078 10.1668 32.7539 10.1562 32.5 10.1562C32.2461 10.1562 31.9816 10.1774 31.7065 10.2197C31.4315 10.262 31.1882 10.3044 30.9766 10.3467C30.9766 10.3467 30.9554 10.3467 30.9131 10.3467C30.8708 10.3467 30.8285 10.3467 30.7861 10.3467C30.4899 10.3467 30.2466 10.2515 30.0562 10.061C29.8657 9.87061 29.7705 9.62728 29.7705 9.33105C29.7705 9.28874 29.7705 9.257 29.7705 9.23584C29.7705 9.21468 29.7705 9.18294 29.7705 9.14062C29.9398 8.29427 30.1937 7.49023 30.5322 6.72852C30.8708 5.9668 31.2516 5.24739 31.6748 4.57031V4.63379C32.4788 3.27962 33.5791 2.17936 34.9756 1.33301C36.3721 0.486656 37.9167 0.0423203 39.6094 0C41.2598 0.0423203 42.7726 0.465492 44.1479 1.26953C45.5233 2.07357 46.6341 3.13151 47.4805 4.44336V4.50684C47.5651 4.59147 47.618 4.67611 47.6392 4.76074C47.6603 4.84538 47.6709 4.95117 47.6709 5.07812C47.6709 5.37435 47.5757 5.61768 47.3853 5.80811C47.1948 5.99854 46.9515 6.09375 46.6553 6.09375C45.0895 6.09375 43.6401 6.64388 42.3071 7.74414C40.9741 8.8444 39.9691 10.2832 39.292 12.0605C39.2497 12.2298 39.165 12.3779 39.0381 12.5049C38.9111 12.6318 38.763 12.7165 38.5938 12.7588C38.5514 12.7588 38.5091 12.7588 38.4668 12.7588C38.4245 12.7588 38.4033 12.7588 38.4033 12.7588C38.4033 12.7588 38.3927 12.7588 38.3716 12.7588C38.3504 12.7588 38.3398 12.7588 38.3398 12.7588ZM32.5 8.125C32.8385 8.125 33.1771 8.14616 33.5156 8.18848C33.8542 8.23079 34.1927 8.29427 34.5312 8.37891H34.4678C35.1449 8.54818 35.7796 8.77034 36.3721 9.04541C36.9645 9.32048 37.5146 9.64844 38.0225 10.0293H37.959C38.6361 8.63281 39.5459 7.43734 40.6885 6.44287C41.8311 5.44841 43.1429 4.73958 44.624 4.31641H44.6875C44.0527 3.63932 43.3016 3.08919 42.4341 2.66602C41.5666 2.24284 40.625 2.03125 39.6094 2.03125C38.2975 2.07357 37.0915 2.43327 35.9912 3.11035C34.891 3.78743 34.0234 4.65495 33.3887 5.71289H33.3252C33.1136 6.05143 32.9126 6.42171 32.7222 6.82373C32.5317 7.22575 32.3519 7.63835 32.1826 8.06152V8.125C32.2249 8.125 32.2778 8.125 32.3413 8.125C32.4048 8.125 32.4577 8.125 32.5 8.125ZM46.7188 28.4375C45.4069 28.4375 44.1903 28.173 43.0688 27.644C41.9474 27.1151 40.9635 26.4062 40.1172 25.5176C40.0326 25.4329 39.9691 25.3271 39.9268 25.2002C39.8844 25.0732 39.8633 24.9463 39.8633 24.8193C39.8633 24.7347 39.8633 24.6712 39.8633 24.6289C39.8633 24.5866 39.8844 24.5231 39.9268 24.4385C40.0114 24.2269 40.0854 24.0047 40.1489 23.772C40.2124 23.5392 40.2865 23.2747 40.3711 22.9785V22.915C40.4557 22.5342 40.5192 22.1216 40.5615 21.6772C40.6038 21.2329 40.625 20.778 40.625 20.3125C40.625 20.2702 40.625 20.2279 40.625 20.1855C40.625 20.1432 40.625 20.1009 40.625 20.0586C40.625 18.6198 40.3605 17.2445 39.8315 15.9326C39.3026 14.6208 38.5726 13.457 37.6416 12.4414C37.557 12.3568 37.4829 12.251 37.4194 12.124C37.356 11.9971 37.3242 11.8701 37.3242 11.7432C37.3242 11.7008 37.3348 11.6479 37.356 11.5845C37.3771 11.521 37.3877 11.4469 37.3877 11.3623V11.4258C38.1917 9.18294 39.4295 7.39502 41.1011 6.06201C42.7726 4.729 44.624 4.0625 46.6553 4.0625C49.4906 4.0625 51.9027 5.25798 53.8916 7.64893C55.8805 10.0399 56.875 12.9069 56.875 16.25C56.875 19.5931 55.8805 22.4601 53.8916 24.8511C51.9027 27.242 49.5117 28.4375 46.7188 28.4375ZM42.0215 24.5654C42.6562 25.1156 43.3757 25.5599 44.1797 25.8984C44.9837 26.237 45.8301 26.4062 46.7188 26.4062C48.9616 26.4062 50.8765 25.4118 52.4634 23.4229C54.0503 21.4339 54.8438 19.043 54.8438 16.25C54.8438 13.457 54.0503 11.0661 52.4634 9.07715C50.8765 7.08821 48.9616 6.09375 46.7188 6.09375C45.1953 6.09375 43.7882 6.59098 42.4976 7.58545C41.2069 8.57991 40.223 9.88118 39.5459 11.4893C40.5192 12.6742 41.2809 13.9966 41.8311 15.4565C42.3812 16.9165 42.6562 18.4717 42.6562 20.1221C42.6562 20.1644 42.6562 20.1961 42.6562 20.2173C42.6562 20.2384 42.6562 20.2702 42.6562 20.3125C42.6562 20.8626 42.6245 21.4022 42.561 21.9312C42.4976 22.4601 42.4235 22.9785 42.3389 23.4863V23.3594C42.2966 23.571 42.2437 23.772 42.1802 23.9624C42.1167 24.1528 42.0638 24.3538 42.0215 24.5654ZM19.2969 52.8125H21.3281V54.8438H19.2969V52.8125ZM44.6875 65H20.3125C20.0163 65 19.7729 64.9048 19.5825 64.7144C19.3921 64.5239 19.2969 64.2806 19.2969 63.9844V56.875H21.3281V62.9688H43.6719V49.7656H45.7031V63.9844C45.7031 64.2806 45.6079 64.5239 45.4175 64.7144C45.2271 64.9048 44.9837 65 44.6875 65ZM46.7188 50.7812H18.2812C17.985 50.7812 17.7417 50.686 17.5513 50.4956C17.3608 50.3052 17.2656 50.0618 17.2656 49.7656V41.6406C17.2656 41.3444 17.3608 41.1011 17.5513 40.9106C17.7417 40.7202 17.985 40.625 18.2812 40.625H46.7188C47.015 40.625 47.2583 40.7202 47.4487 40.9106C47.6392 41.1011 47.7344 41.3444 47.7344 41.6406V49.7656C47.7344 50.0618 47.6392 50.3052 47.4487 50.4956C47.2583 50.686 47.015 50.7812 46.7188 50.7812ZM19.2969 48.75H45.7031V42.6562H19.2969V48.75ZM35.5469 65H29.4531C29.1569 65 28.9136 64.9048 28.7231 64.7144C28.5327 64.5239 28.4375 64.2806 28.4375 63.9844V49.7656C28.4375 49.4694 28.5327 49.2261 28.7231 49.0356C28.9136 48.8452 29.1569 48.75 29.4531 48.75H35.5469C35.8431 48.75 36.0864 48.8452 36.2769 49.0356C36.4673 49.2261 36.5625 49.4694 36.5625 49.7656V63.9844C36.5625 64.2806 36.4673 64.5239 36.2769 64.7144C36.0864 64.9048 35.8431 65 35.5469 65ZM30.4688 62.9688H34.5312V50.7812H30.4688V62.9688ZM36.5625 50.7812H28.4375C28.1413 50.7812 27.8979 50.686 27.7075 50.4956C27.5171 50.3052 27.4219 50.0618 27.4219 49.7656V41.6406C27.4219 41.3444 27.5171 41.1011 27.7075 40.9106C27.8979 40.7202 28.1413 40.625 28.4375 40.625H36.5625C36.8587 40.625 37.1021 40.7202 37.2925 40.9106C37.4829 41.1011 37.5781 41.3444 37.5781 41.6406V49.7656C37.5781 50.0618 37.4829 50.3052 37.2925 50.4956C37.1021 50.686 36.8587 50.7812 36.5625 50.7812ZM29.4531 48.75H35.5469V42.6562H29.4531V48.75ZM34.5312 42.6562H30.4688C30.1725 42.6562 29.9292 42.561 29.7388 42.3706C29.5483 42.1802 29.4531 41.9368 29.4531 41.6406V39.6094C29.4531 38.763 29.7493 38.0436 30.3418 37.4512C30.9342 36.8587 31.6536 36.5625 32.5 36.5625C33.3464 36.5625 34.0658 36.8587 34.6582 37.4512C35.2507 38.0436 35.5469 38.763 35.5469 39.6094V41.6406C35.5469 41.9368 35.4517 42.1802 35.2612 42.3706C35.0708 42.561 34.8275 42.6562 34.5312 42.6562ZM31.4844 40.625H33.5156V39.6094C33.5156 39.3132 33.4204 39.0698 33.23 38.8794C33.0396 38.689 32.7962 38.5938 32.5 38.5938C32.2038 38.5938 31.9604 38.689 31.77 38.8794C31.5796 39.0698 31.4844 39.3132 31.4844 39.6094V40.625ZM40.625 42.6562H34.5312C34.235 42.6562 33.9917 42.561 33.8013 42.3706C33.6108 42.1802 33.5156 41.9368 33.5156 41.6406V38.5938C33.5156 38.5091 33.5262 38.4139 33.5474 38.3081C33.5685 38.2023 33.6214 38.1071 33.7061 38.0225C33.7484 37.9378 34.2985 37.3348 35.3564 36.2134C36.4144 35.092 37.832 34.5312 39.6094 34.5312H41.6406C42.487 34.5312 43.2064 34.8275 43.7988 35.4199C44.3913 36.0124 44.6875 36.7318 44.6875 37.5781V38.5938C44.6875 39.7363 44.2961 40.6991 43.5132 41.4819C42.7303 42.2648 41.7676 42.6562 40.625 42.6562ZM35.5469 40.625H40.625C41.1751 40.625 41.6512 40.424 42.0532 40.022C42.4552 39.62 42.6562 39.1439 42.6562 38.5938V37.5781C42.6562 37.2819 42.561 37.0386 42.3706 36.8481C42.1802 36.6577 41.9368 36.5625 41.6406 36.5625H39.6094C38.5938 36.5625 37.7262 36.8799 37.0068 37.5146C36.2874 38.1494 35.8008 38.6149 35.5469 38.9111V40.625ZM36.3721 42.2119L34.7217 41.0693C34.764 40.9847 35.4411 40.3817 36.7529 39.2603C38.0648 38.1388 40.3711 37.5781 43.6719 37.5781V39.6094C40.9635 39.6094 39.0804 40.0326 38.0225 40.8789C36.9645 41.7253 36.4144 42.1696 36.3721 42.2119ZM30.4688 42.6562H24.375C23.2324 42.6562 22.2697 42.2648 21.4868 41.4819C20.7039 40.6991 20.3125 39.7363 20.3125 38.5938V37.5781C20.3125 36.7318 20.6087 36.0124 21.2012 35.4199C21.7936 34.8275 22.513 34.5312 23.3594 34.5312H25.3906C27.168 34.5312 28.5856 35.092 29.6436 36.2134C30.7015 37.3348 31.2516 37.9378 31.2939 38.0225C31.3786 38.1071 31.4315 38.2023 31.4526 38.3081C31.4738 38.4139 31.4844 38.5091 31.4844 38.5938V41.6406C31.4844 41.9368 31.3892 42.1802 31.1987 42.3706C31.0083 42.561 30.765 42.6562 30.4688 42.6562ZM23.3594 36.5625C23.0632 36.5625 22.8198 36.6577 22.6294 36.8481C22.439 37.0386 22.3438 37.2819 22.3438 37.5781V38.5938C22.3438 39.1439 22.5448 39.62 22.9468 40.022C23.3488 40.424 23.8249 40.625 24.375 40.625H29.4531V38.9111C29.1992 38.6149 28.7126 38.1494 27.9932 37.5146C27.2738 36.8799 26.4062 36.5625 25.3906 36.5625H23.3594ZM28.6279 42.2119C28.5856 42.1696 28.0355 41.7253 26.9775 40.8789C25.9196 40.0326 24.0365 39.6094 21.3281 39.6094V37.5781C24.6289 37.5781 26.9352 38.1388 28.2471 39.2603C29.5589 40.3817 30.236 40.9847 30.2783 41.0693L28.6279 42.2119ZM31.4844 31.4844H33.5156V37.5781H31.4844V31.4844ZM39.165 36.3721L38.0225 34.7217C39.4613 33.7484 41.1328 32.1826 43.0371 30.0244C44.9414 27.8662 45.9147 26.7871 45.957 26.7871L47.4805 28.0566C47.3958 28.1836 46.3802 29.3473 44.4336 31.5479C42.487 33.7484 40.7308 35.3564 39.165 36.3721ZM24.8193 36.3721C23.2536 35.3564 21.4974 33.7484 19.5508 31.5479C17.6042 29.3473 16.5885 28.1836 16.5039 28.0566L18.0273 26.7871C18.0697 26.7871 19.043 27.8662 20.9473 30.0244C22.8516 32.1826 24.5231 33.7484 25.9619 34.7217L24.8193 36.3721ZM34.2139 38.2764L32.8174 36.8799C33.5791 36.1182 34.3302 34.8381 35.0708 33.0396C35.8114 31.241 36.3298 29.9398 36.626 29.1357L38.5303 29.7705C38.488 29.8975 38.033 31.0824 37.1655 33.3252C36.298 35.568 35.3141 37.2184 34.2139 38.2764ZM30.7861 38.2764C29.6859 37.2184 28.702 35.568 27.8345 33.3252C26.967 31.0824 26.512 29.8975 26.4697 29.7705L28.374 29.1357C28.6702 29.9398 29.1886 31.241 29.9292 33.0396C30.6698 34.8381 31.4209 36.1182 32.1826 36.8799L30.7861 38.2764ZM36.5625 16.25H38.5938V18.2812H36.5625V16.25Z" fill="#4B4B4B"/>
</g>
</svg>
