<svg width="65" height="65" viewBox="0 0 65 65" fill="none" xmlns="http://www.w3.org/2000/svg">
<g id="Icon">
<path id="Vector" d="M64.7461 53.0664L56.3037 44.624C56.1344 44.4548 55.9229 44.3701 55.6689 44.3701C55.415 44.3701 55.1823 44.4548 54.9707 44.624C54.8014 44.8356 54.7168 45.0684 54.7168 45.3223C54.7168 45.5762 54.8014 45.8089 54.9707 46.0205L55.8594 46.9092L48.4326 54.3359L45.3857 51.2891C44.8356 50.7389 44.1903 50.3263 43.4497 50.0513C42.7091 49.7762 41.9368 49.6598 41.1328 49.7021L37.7686 49.9561C37.2607 49.9984 36.7635 49.9243 36.2769 49.7339C35.7902 49.5435 35.3564 49.2578 34.9756 48.877L25.3906 39.3555C25.1367 39.1016 25.0098 38.7842 25.0098 38.4033C25.0098 38.0225 25.1367 37.7051 25.3906 37.4512C25.6868 37.1973 26.0148 37.0703 26.3745 37.0703C26.7342 37.0703 27.041 37.1973 27.2949 37.4512L31.8018 41.958C31.8018 41.958 31.8123 41.958 31.8335 41.958C31.8547 41.958 31.8652 41.9792 31.8652 42.0215C31.9499 42.0638 32.0451 42.1061 32.1509 42.1484C32.2567 42.1908 32.373 42.2119 32.5 42.2119C32.5846 42.2119 32.6799 42.1908 32.7856 42.1484C32.8914 42.1061 32.9867 42.0638 33.0713 42.0215C33.1136 41.9792 33.1348 41.958 33.1348 41.958C33.3464 41.7464 33.4521 41.5137 33.4521 41.2598C33.4521 41.0059 33.3464 40.7731 33.1348 40.5615L23.4229 30.8496C23.2959 30.7227 23.1901 30.564 23.1055 30.3735C23.0208 30.1831 22.9785 29.9821 22.9785 29.7705C22.9785 29.5589 23.0208 29.3579 23.1055 29.1675C23.1901 28.9771 23.2959 28.7972 23.4229 28.6279C23.5921 28.501 23.772 28.3952 23.9624 28.3105C24.1528 28.2259 24.3538 28.1836 24.5654 28.1836C24.7347 28.1836 24.904 28.2153 25.0732 28.2788C25.2425 28.3423 25.3906 28.4375 25.5176 28.5645L35.3564 38.3398C35.4411 38.4668 35.5469 38.5514 35.6738 38.5938C35.8008 38.6361 35.9277 38.6572 36.0547 38.6572C36.1816 38.6572 36.298 38.6361 36.4038 38.5938C36.5096 38.5514 36.6048 38.4668 36.6895 38.3398C36.6895 38.3398 36.7 38.3398 36.7212 38.3398C36.7424 38.3398 36.7529 38.3398 36.7529 38.3398C36.9222 38.1706 37.0068 37.959 37.0068 37.7051C37.0068 37.4512 36.9222 37.2184 36.7529 37.0068L22.8516 23.1055C22.513 22.8092 22.3438 22.4495 22.3438 22.0264C22.3438 21.6032 22.513 21.2223 22.8516 20.8838C22.9785 20.7568 23.1372 20.651 23.3276 20.5664C23.5181 20.4818 23.7191 20.4395 23.9307 20.4395C24.1423 20.4395 24.3433 20.4818 24.5337 20.5664C24.7241 20.651 24.904 20.7568 25.0732 20.8838L38.9111 34.8486C38.9958 34.9333 39.1016 34.9967 39.2285 35.0391C39.3555 35.0814 39.4824 35.1025 39.6094 35.1025C39.7363 35.1025 39.8527 35.0814 39.9585 35.0391C40.0643 34.9967 40.1595 34.9333 40.2441 34.8486C40.2441 34.8486 40.2441 34.8381 40.2441 34.8169C40.2441 34.7957 40.2441 34.7852 40.2441 34.7852C40.2441 34.7852 40.2547 34.7852 40.2759 34.7852C40.297 34.7852 40.3076 34.7852 40.3076 34.7852C40.4769 34.6159 40.5615 34.3937 40.5615 34.1187C40.5615 33.8436 40.4769 33.6214 40.3076 33.4521L27.7393 20.8838C27.6546 20.7568 27.5911 20.6299 27.5488 20.5029C27.5065 20.376 27.4854 20.2279 27.4854 20.0586C27.4854 19.847 27.5277 19.646 27.6123 19.4556C27.6969 19.2651 27.8027 19.0853 27.9297 18.916C28.099 18.7891 28.2788 18.6833 28.4692 18.5986C28.6597 18.514 28.8607 18.4717 29.0723 18.4717C29.2839 18.4717 29.4849 18.514 29.6753 18.5986C29.8657 18.6833 30.0244 18.7891 30.1514 18.916L41.0059 29.7705L42.2119 31.3574C42.3812 31.569 42.5928 31.6854 42.8467 31.7065C43.1006 31.7277 43.3333 31.6748 43.5449 31.5479C43.7565 31.3786 43.8835 31.167 43.9258 30.9131C43.9681 30.6592 43.9046 30.4264 43.7354 30.2148L42.4658 28.5645C42.3389 28.3105 42.2542 28.0672 42.2119 27.8345C42.1696 27.6017 42.1908 27.3584 42.2754 27.1045C42.3177 26.8506 42.4235 26.6284 42.5928 26.438C42.762 26.2476 42.9525 26.0889 43.1641 25.9619C43.5872 25.7503 44.0422 25.708 44.5288 25.835C45.0155 25.9619 45.3857 26.2158 45.6396 26.5967C45.6396 26.639 46.5601 27.8239 48.4009 30.1514C50.2417 32.4788 51.1621 33.6426 51.1621 33.6426C51.5007 34.0658 51.7228 34.5312 51.8286 35.0391C51.9344 35.5469 51.945 36.0547 51.8604 36.5625L51.3525 38.9746C51.2679 39.5247 51.2573 40.1066 51.3208 40.7202C51.3843 41.3338 51.5641 41.8945 51.8604 42.4023C51.9027 42.5716 52.0085 42.7091 52.1777 42.8149C52.347 42.9207 52.5163 42.9736 52.6855 42.9736C52.7702 42.9736 52.8442 42.9631 52.9077 42.9419C52.9712 42.9207 53.0452 42.889 53.1299 42.8467C53.3415 42.7197 53.4896 42.5399 53.5742 42.3071C53.6589 42.0744 53.6589 41.8311 53.5742 41.5771C53.3626 41.2386 53.2357 40.8789 53.1934 40.498C53.151 40.1172 53.1722 39.7363 53.2568 39.3555L53.7012 36.9434C53.8704 36.1393 53.8599 35.3459 53.6694 34.563C53.479 33.7801 53.1299 33.0713 52.6221 32.4365L52.3682 32.1191C52.7913 31.6113 53.0876 31.04 53.2568 30.4053C53.4261 29.7705 53.4896 29.1357 53.4473 28.501L53.2568 25.1367C53.2145 24.5866 53.278 24.0788 53.4473 23.6133C53.6165 23.1478 53.8916 22.7246 54.2725 22.3438L64.7461 11.8701C64.9154 11.7008 65 11.4893 65 11.2354C65 10.9814 64.9154 10.7487 64.7461 10.5371L55.9863 1.84082C55.8171 1.62923 55.5949 1.52344 55.3198 1.52344C55.0448 1.52344 54.8226 1.62923 54.6533 1.84082L44.2432 12.251C43.82 12.6742 43.3228 12.9704 42.7515 13.1396C42.1802 13.3089 41.5983 13.3301 41.0059 13.2031L38.6572 12.7588C37.8532 12.5895 37.0703 12.6001 36.3086 12.7905C35.5469 12.981 34.8486 13.3301 34.2139 13.8379C34.2139 13.8379 34.1927 13.8379 34.1504 13.8379L32.5 15.2979L30.8496 13.8379C30.8073 13.8379 30.7861 13.8379 30.7861 13.8379C30.1514 13.3301 29.4531 12.981 28.6914 12.7905C27.9297 12.6001 27.1468 12.5895 26.3428 12.7588L23.9941 13.2031C23.4017 13.3301 22.8198 13.3089 22.2485 13.1396C21.6772 12.9704 21.18 12.6742 20.7568 12.251L10.3467 1.84082C10.1774 1.62923 9.95524 1.52344 9.68018 1.52344C9.40511 1.52344 9.18294 1.62923 9.01367 1.84082L0.253906 10.5371C0.0846354 10.7487 0 10.9814 0 11.2354C0 11.4893 0.0846354 11.7008 0.253906 11.8701L10.7275 22.3438C11.1084 22.7246 11.3835 23.1478 11.5527 23.6133C11.722 24.0788 11.7855 24.5866 11.7432 25.1367L11.5527 28.501C11.4681 29.2204 11.5527 29.9292 11.8066 30.6274C12.0605 31.3257 12.4414 31.9499 12.9492 32.5C12.4414 33.0501 12.0605 33.6743 11.8066 34.3726C11.5527 35.0708 11.4681 35.7796 11.5527 36.499L11.7432 39.8633C11.7855 40.4134 11.722 40.9212 11.5527 41.3867C11.3835 41.8522 11.1084 42.2754 10.7275 42.6562L0.253906 53.1299C0.0846354 53.2992 0 53.5107 0 53.7646C0 54.0186 0.0846354 54.2513 0.253906 54.4629L9.01367 63.1592C9.09831 63.2438 9.2041 63.3179 9.33105 63.3813C9.45801 63.4448 9.58496 63.4766 9.71191 63.4766C9.79655 63.4766 9.90234 63.4448 10.0293 63.3813C10.1562 63.3179 10.262 63.2438 10.3467 63.1592L20.7568 52.749C21.18 52.3258 21.6772 52.0296 22.2485 51.8604C22.8198 51.6911 23.4017 51.6699 23.9941 51.7969L26.3428 52.2412C27.1468 52.4105 27.9297 52.3999 28.6914 52.2095C29.4531 52.019 30.1514 51.6699 30.7861 51.1621C30.7861 51.1621 30.7967 51.1621 30.8179 51.1621C30.839 51.1621 30.8496 51.1621 30.8496 51.1621L32.7539 49.3848L33.6426 50.2734C34.1927 50.8236 34.8381 51.2362 35.5786 51.5112C36.3192 51.7863 37.0915 51.9027 37.8955 51.8604L41.2598 51.6064C41.7676 51.5641 42.2648 51.6382 42.7515 51.8286C43.2381 52.019 43.6719 52.2835 44.0527 52.6221L54.5898 63.1592C54.6745 63.2438 54.7803 63.3179 54.9072 63.3813C55.0342 63.4448 55.1611 63.4766 55.2881 63.4766C55.3727 63.4766 55.4785 63.4448 55.6055 63.3813C55.7324 63.3179 55.8382 63.2438 55.9229 63.1592L64.7461 54.3994C64.9154 54.1878 65 53.9551 65 53.7012C65 53.4473 64.9154 53.2357 64.7461 53.0664ZM55.2881 3.87207L62.7148 11.2354L57.2559 16.6309L49.8926 9.26758L55.2881 3.87207ZM35.4199 15.2979C35.8008 14.9593 36.2451 14.7371 36.7529 14.6313C37.2607 14.5256 37.7686 14.515 38.2764 14.5996L40.6885 15.1074C41.5771 15.2767 42.4552 15.2238 43.3228 14.9487C44.1903 14.6737 44.9414 14.2188 45.5762 13.584L48.5596 10.6006L55.9229 18.0273L52.9395 21.0107C52.347 21.5609 51.9132 22.2062 51.6382 22.9468C51.3631 23.6873 51.2679 24.4596 51.3525 25.2637L51.543 28.6279C51.5853 28.9665 51.5747 29.2944 51.5112 29.6118C51.4478 29.9292 51.3314 30.236 51.1621 30.5322L47.2266 25.5811C46.6764 24.7347 45.9253 24.1951 44.9731 23.9624C44.021 23.7297 43.1217 23.846 42.2754 24.3115C41.8099 24.5231 41.429 24.8299 41.1328 25.2319C40.8366 25.634 40.6038 26.0677 40.4346 26.5332L32.1191 18.2178L35.4199 15.2979ZM2.28516 11.2354L9.71191 3.87207L15.1074 9.26758L7.74414 16.6309L2.28516 11.2354ZM9.71191 61.1279L2.28516 53.7646L7.74414 48.3691L15.1074 55.7324L9.71191 61.1279ZM29.5801 49.7021C29.1569 50.0407 28.702 50.2629 28.2153 50.3687C27.7287 50.4744 27.2314 50.485 26.7236 50.4004L24.3115 49.8926C23.4229 49.7233 22.5448 49.7762 21.6772 50.0513C20.8097 50.3263 20.0586 50.7812 19.4238 51.416L16.4404 54.3994L9.07715 46.9727L12.0605 43.9893C12.653 43.4391 13.0868 42.7938 13.3618 42.0532C13.6369 41.3127 13.7321 40.5404 13.6475 39.7363L13.457 36.3721C13.4147 35.8643 13.4782 35.3776 13.6475 34.9121C13.8167 34.4466 14.0918 34.0234 14.4727 33.6426L17.583 30.4688C17.7946 30.2995 17.9004 30.0773 17.9004 29.8022C17.9004 29.5272 17.7946 29.305 17.583 29.1357C17.4137 28.9665 17.2021 28.8818 16.9482 28.8818C16.6943 28.8818 16.4616 28.9665 16.25 29.1357L14.2822 31.167C13.986 30.7861 13.7638 30.3841 13.6157 29.9609C13.4676 29.5378 13.4147 29.0934 13.457 28.6279L13.6475 25.2637C13.7321 24.4596 13.6369 23.6873 13.3618 22.9468C13.0868 22.2062 12.653 21.5609 12.0605 21.0107L9.07715 18.0273L16.4404 10.6006L19.4238 13.584C20.0586 14.2188 20.8097 14.6737 21.6772 14.9487C22.5448 15.2238 23.4229 15.2767 24.3115 15.1074L26.7236 14.5996C27.2314 14.515 27.7393 14.5256 28.2471 14.6313C28.7549 14.7371 29.1992 14.9593 29.5801 15.2979L31.04 16.5674L30.6592 16.9482C30.4053 16.8213 30.1408 16.7261 29.8657 16.6626C29.5907 16.5991 29.3262 16.5674 29.0723 16.5674C28.6068 16.5674 28.1624 16.652 27.7393 16.8213C27.3161 16.9906 26.9352 17.2445 26.5967 17.583C26.3851 17.7946 26.2052 18.0273 26.0571 18.2812C25.909 18.5352 25.7926 18.7891 25.708 19.043C25.4541 18.8737 25.179 18.7467 24.8828 18.6621C24.5866 18.5775 24.2692 18.5352 23.9307 18.5352C23.4652 18.5352 23.0208 18.6198 22.5977 18.7891C22.1745 18.9583 21.7936 19.2122 21.4551 19.5508C20.8626 20.1855 20.5347 20.9473 20.4712 21.8359C20.4077 22.7246 20.651 23.5075 21.2012 24.1846L19.4238 26.0254C19.2122 26.1947 19.1064 26.4062 19.1064 26.6602C19.1064 26.9141 19.2122 27.1468 19.4238 27.3584C19.5931 27.5277 19.8153 27.6123 20.0903 27.6123C20.3654 27.6123 20.5876 27.5277 20.7568 27.3584L22.5342 25.5176L23.4229 26.4697C23.1689 26.5544 22.9362 26.6602 22.7246 26.7871C22.513 26.9141 22.3014 27.0833 22.0898 27.2949C21.7513 27.6335 21.4974 28.0143 21.3281 28.4375C21.1589 28.8607 21.0742 29.305 21.0742 29.7705C21.0742 30.236 21.1589 30.6803 21.3281 31.1035C21.4974 31.5267 21.7513 31.8864 22.0898 32.1826L25.2637 35.3564C25.0521 35.4411 24.8405 35.5469 24.6289 35.6738C24.4173 35.8008 24.2269 35.9489 24.0576 36.1182C23.4229 36.7529 23.1055 37.5146 23.1055 38.4033C23.1055 39.292 23.4229 40.0537 24.0576 40.6885L31.4209 48.0518L29.5801 49.7021ZM55.2881 61.1279L49.7656 55.6689L57.2559 48.2422L62.7148 53.7012L55.2881 61.1279Z" fill="white"/>
</g>
</svg>
